<?xml version="1.0" standalone="no"?><!DOCTYPE svg PUBLIC "-//W3C//DTD SVG 1.1//EN" "http://www.w3.org/Graphics/SVG/1.1/DTD/svg11.dtd"><svg t="1685521585589" class="icon" viewBox="0 0 1024 1024" version="1.1" xmlns="http://www.w3.org/2000/svg" p-id="1104" xmlns:xlink="http://www.w3.org/1999/xlink" width="200" height="200"><path d="M253.8 330.3l519.3 1L512 569.1z" fill="#6FB0B6" p-id="1105"></path><path d="M718.6 460.4c-10.5 0-21.2-1.7-32.9-5.2l-30.2-9L764.2 353c5.5-4.7 7.4-12.3 5-19.1-2.5-6.7-9-11.2-16.2-11.2H597.1l8.2-23c17.1-48 62.6-80.3 113.2-80.3 66.4 0 120.5 54.1 120.5 120.5s-54 120.5-120.4 120.5z" fill="#FEDEA1" p-id="1106"></path><path d="M718.6 202.2c-64 0-117 44-132.3 103.3h-165L288.6 172.8c-4.6-4.6-11.4-6.3-17.6-4.1l-103.3 34.4 10.9 32.7 93.2-31.1 100.8 100.8H271c-14.4 0-27.3 9-32.3 22.5-5 13.5-1.1 28.7 9.9 38.1l246.2 211v244.8h-86.1c-9.5 0-17.2 7.7-17.2 17.2s7.7 17.2 17.2 17.2h206.6c9.5 0 17.2-7.7 17.2-17.2s-7.7-17.2-17.2-17.2h-86.1V577l131.3-112.5c17.7 8.3 37.3 13.1 58.1 13.1 76 0 137.7-61.7 137.7-137.7s-61.7-137.7-137.7-137.7zM512 546.4L271 339.9h482L512 546.4z m206.6-103.3c-9.8 0-19-1.8-28-4.5l84.8-72.7c10.9-9.4 14.9-24.6 9.9-38.1s-17.9-22.5-32.3-22.5H621.5c14.2-40 52.2-68.8 97-68.8 57 0 103.3 46.3 103.3 103.3s-46.3 103.3-103.2 103.3z" fill="#573A32" p-id="1107"></path></svg>